<?xml version="1.0" encoding="UTF-8" standalone="no"?>
<!-- Created with Inkscape (http://www.inkscape.org/) -->

<svg
   xmlns:ns0="http://www.iki.fi/pav/software/textext/"
   xmlns:dc="http://purl.org/dc/elements/1.1/"
   xmlns:cc="http://creativecommons.org/ns#"
   xmlns:rdf="http://www.w3.org/1999/02/22-rdf-syntax-ns#"
   xmlns:svg="http://www.w3.org/2000/svg"
   xmlns="http://www.w3.org/2000/svg"
   xmlns:xlink="http://www.w3.org/1999/xlink"
   xmlns:sodipodi="http://sodipodi.sourceforge.net/DTD/sodipodi-0.dtd"
   xmlns:inkscape="http://www.inkscape.org/namespaces/inkscape"
   width="360"
   height="360"
   id="svg2"
   version="1.1"
   inkscape:version="0.48.3.1 r9886"
   sodipodi:docname="logo.svg">
  <sodipodi:namedview
     id="base"
     pagecolor="#ffffff"
     bordercolor="#666666"
     borderopacity="1.0"
     inkscape:pageopacity="0.0"
     inkscape:pageshadow="2"
     inkscape:zoom="0.7"
     inkscape:cx="346.41381"
     inkscape:cy="336.86518"
     inkscape:document-units="px"
     inkscape:current-layer="content"
     showgrid="false"
     inkscape:window-width="1317"
     inkscape:window-height="744"
     inkscape:window-x="49"
     inkscape:window-y="24"
     inkscape:window-maximized="1"
     fit-margin-top="0"
     fit-margin-left="0"
     fit-margin-right="0"
     fit-margin-bottom="0"
     units="in" />
  <defs
     id="defs4">
    <linearGradient
       inkscape:collect="always"
       id="linearGradient5464">
      <stop
         style="stop-color:#45d737;stop-opacity:1;"
         offset="0"
         id="stop5466" />
      <stop
         style="stop-color:#45d737;stop-opacity:0;"
         offset="1"
         id="stop5468" />
    </linearGradient>
    <linearGradient
       inkscape:collect="always"
       xlink:href="#linearGradient5464"
       id="linearGradient5470"
       x1="228.40524"
       y1="709.36151"
       x2="235.9225"
       y2="709.36151"
       gradientUnits="userSpaceOnUse"
       gradientTransform="matrix(2.694831,0,0,2.694831,-379.86134,-1190.5508)" />
  </defs>
  <metadata
     id="metadata7">
    <rdf:RDF>
      <cc:Work
         rdf:about="">
        <dc:format>image/svg+xml</dc:format>
        <dc:type
           rdf:resource="http://purl.org/dc/dcmitype/StillImage" />
        <dc:title />
      </cc:Work>
    </rdf:RDF>
  </metadata>
  <g
     id="layer1"
     inkscape:groupmode="layer"
     inkscape:label="Layer 1"
     transform="translate(-245,-93.125)">
    <g
       ns0:preamble=""
       ns0:text="$\\sqrt{\\pi}$"
       word-spacing="normal"
       letter-spacing="normal"
       font-size-adjust="none"
       font-stretch="normal"
       font-weight="normal"
       font-variant="normal"
       font-style="normal"
       stroke-miterlimit="10.433"
       xml:space="preserve"
       transform="matrix(10,0,0,-10,-2000,7500)"
       id="content"
       style="font-style:normal;font-variant:normal;font-weight:normal;font-stretch:normal;letter-spacing:normal;word-spacing:normal;text-anchor:start;fill:none;stroke:#000000;stroke-linecap:butt;stroke-linejoin:miter;stroke-miterlimit:10.43299961;stroke-opacity:1;stroke-dasharray:none;stroke-dashoffset:0">
<path
   style="fill:none;stroke:#000000;stroke-width:0.26948309px;stroke-linecap:butt;stroke-linejoin:miter;stroke-opacity:1"
   d="m 234.82272,713.13061 20.98117,0"
   id="path3970"
   inkscape:connector-curvature="0"
   sodipodi:nodetypes="cc" /><path
   style="fill:url(#linearGradient5470);fill-opacity:1;stroke:#000000;stroke-width:0.26948309px;stroke-linecap:butt;stroke-linejoin:miter;stroke-opacity:1"
   d="m 236.96284,724.16166 -1.14225,-10.98413 18.86974,0.0463 1.05115,15.63503 c -5.79203,0.26437 -17.46547,0.14741 -18.77864,-4.69725 z"
   id="path3972"
   inkscape:connector-curvature="0"
   sodipodi:nodetypes="ccccc" /><path
   id="path2991"
   d="m 232.01187,712.22715 -1.98485,9.82818 c -0.16169,0.43117 -0.29643,0.43117 -0.37727,0.43117 -0.0269,0 -0.16169,0 -0.45812,-0.21558 l -3.57068,-1.8652 c -0.35033,-0.26949 -0.35033,-0.35033 -0.35033,-0.43118 0,-0.13474 0.0808,-0.29643 0.26948,-0.29643 0.16169,0 0.42735,-0.20023 0.72378,0.0162 0.16169,0.13474 2.10582,1.00865 2.40225,1.22423 l 2.87577,-11.85612 c 0.18863,-0.43117 0.32338,-0.43117 0.56591,-0.43117 0.40423,0 0.48507,0.16169 0.67371,0.53896 l 2.44472,25.3668 c 0.16169,0.37727 0.16169,0.48507 0.16169,0.53896 0,0.26949 -0.21558,0.53897 -0.51202,0.53897 -0.21558,0 -0.40422,-0.13474 -0.61981,-0.56591 z"
   inkscape:connector-curvature="0"
   style="fill:#000000;stroke-width:0"
   sodipodi:nodetypes="ccsccsscccsccsscc" />
<line
   id="line2993"
   y2="735.07971"
   x2="259.92728"
   y1="735.07971"
   x1="234.93132"
   style="stroke-width:1.01197112" />
<path
   id="path2995"
   d="m 244.366,726.96553 4.6595,0.0482 c -0.44227,-5.33053 -0.59098,-6.23257 -0.84251,-9.35262 -0.0736,-0.9118 -0.32847,-1.83238 -0.19484,-2.73733 0.0795,-0.53792 0.10753,-1.25722 0.58125,-1.52422 0.36658,-0.2067 0.97661,-0.10079 1.24202,0.22582 0.40194,0.49456 0.17544,0.93853 0.10591,1.61043 -0.18945,1.83438 -0.17058,3.93966 -0.18648,5.92874 -0.0162,1.95117 0.0967,3.97628 0.23067,5.84916 l 2.85477,0.14444 c 1.62418,0.0822 4.02657,1.15492 2.7002,2.52387 -0.93395,0.6359 -0.6818,-0.4285 -3.57777,-0.47089 l -9.86421,-0.14445 c -0.79231,-0.0108 -2.16104,0 -3.51385,-1.65678 -1.06394,-1.40468 -1.76845,-3.06146 -1.74323,-3.24156 0.12423,-0.6048 0.0553,-0.17839 0.31788,0.24227 1.37655,2.7733 3.46553,2.60318 4.18586,2.60318 l 1.69963,0 c -0.54239,-4.35808 -0.84836,-8.68013 -1.9022,-11.95769 -0.21262,-0.54024 -0.20238,-0.61227 -0.16708,-0.8644 0.0959,-0.68432 0.70736,-0.93645 1.17559,-0.93645 1.08052,0 1.04958,1.18933 1.18939,2.06451 0.18136,1.13428 0.29315,2.44596 0.3821,3.67402 0.19214,2.65258 0.32694,7.97191 0.32694,7.97191 z"
   inkscape:connector-curvature="0"
   style="fill:#000000;stroke-width:0"
   sodipodi:nodetypes="ccaaassscscsscccscccssacc" />
<path
   style="fill:none;stroke:#000000;stroke-width:0.26948309px;stroke-linecap:butt;stroke-linejoin:miter;stroke-opacity:1"
   d="m 240.29075,728.05141 -1.64439,-14.92373"
   id="path5472"
   inkscape:connector-curvature="0" /><path
   style="font-style:normal;font-variant:normal;font-weight:normal;font-stretch:normal;letter-spacing:normal;word-spacing:normal;text-anchor:start;fill:none;stroke:#000000;stroke-width:0.26948309px;stroke-linecap:butt;stroke-linejoin:miter;stroke-miterlimit:10.43299961;stroke-opacity:1;stroke-dasharray:none;stroke-dashoffset:0"
   d="m 246.93156,728.14764 -1.64438,-14.92373"
   id="path5472-2"
   inkscape:connector-curvature="0" /><path
   style="font-style:normal;font-variant:normal;font-weight:normal;font-stretch:normal;letter-spacing:normal;word-spacing:normal;text-anchor:start;fill:none;stroke:#000000;stroke-width:0.26948309px;stroke-linecap:butt;stroke-linejoin:miter;stroke-miterlimit:10.43299961;stroke-opacity:1;stroke-dasharray:none;stroke-dashoffset:0"
   d="m 252.40245,728.07442 -1.15237,-14.96976"
   id="path5472-1"
   inkscape:connector-curvature="0" /></g>  </g>
</svg>
